<?xml version="1.0" encoding="UTF-8"?>
<svg id="Capa_1" xmlns="http://www.w3.org/2000/svg" version="1.1" viewBox="0 0 250 250">
  <!-- Generator: Adobe Illustrator 29.4.0, SVG Export Plug-In . SVG Version: 2.1.0 Build 152)  -->
  <defs>
    <style>
      .st0 {
        fill: #f1f6fc;
      }
    </style>
  </defs>
  <path class="st0" d="M224.85,20c-.2,0-.4.03-.6.06l-105,15.74c-2.45.37-4.26,2.47-4.26,4.95v74.25c0,2.76,2.24,5,5,5h105c2.76,0,5-2.24,5-5V25c0-2.76-2.24-5-5-5-.05,0-.1,0-.15,0ZM220,30.8v79.2h-95V45.06l95-14.26ZM99.85,38.75c-.2,0-.4.03-.6.06l-75,11.25c-2.45.37-4.26,2.47-4.26,4.94v60c0,2.76,2.24,5,5,5h75c2.76,0,5-2.24,5-5V43.75c0-2.76-2.24-5-5-5-.05,0-.1,0-.15,0ZM95,49.55v60.45H30v-50.69l65-9.76ZM25,130c-2.76,0-5,2.24-5,5v60c0,2.47,1.81,4.57,4.26,4.94l75,11.25c2.73.41,5.28-1.47,5.69-4.2.04-.24.06-.49.06-.74v-71.25c0-2.76-2.24-5-5-5H25ZM120,130c-2.76,0-5,2.24-5,5v74.25c0,2.48,1.81,4.58,4.26,4.95l105,15.74c2.73.41,5.28-1.47,5.69-4.2.04-.24.06-.49.06-.74v-90c0-2.76-2.24-5-5-5h-105ZM30,140h65v60.45l-65-9.76v-50.69ZM125,140h95v79.2l-95-14.26v-64.94Z"/>
</svg>